<svg xmlns="http://www.w3.org/2000/svg" xmlns:xlink="http://www.w3.org/1999/xlink" width="500" zoomAndPan="magnify" viewBox="0 0 375 374.999991" height="500" preserveAspectRatio="xMidYMid meet" version="1.0"><defs><g/></defs><g fill="rgb(50.19989%, 50.19989%, 50.19989%)" fill-opacity="1"><g transform="translate(82.480518, 301.591058)"><g><path d="M 84.640625 -171.519531 C 83.710938 -170.773438 82.964844 -169.84375 82.964844 -169.65625 C 83.148438 -169.097656 83.894531 -169.46875 85.386719 -171.148438 C 87.25 -172.824219 86.691406 -173.199219 84.640625 -171.519531 Z M 96.386719 -15.101562 C 96.945312 -15.101562 100.488281 -18.457031 99.929688 -18.457031 C 99.742188 -18.457031 98.8125 -17.710938 97.691406 -16.777344 C 96.757812 -15.847656 96.015625 -15.101562 96.386719 -15.101562 Z M 41.574219 -128.453125 C 40.644531 -126.777344 40.082031 -125.472656 40.269531 -125.472656 C 40.457031 -125.472656 41.203125 -126.589844 41.761719 -127.523438 C 42.507812 -128.640625 43.4375 -129.945312 43.625 -130.316406 C 44 -130.691406 44.183594 -131.25 44 -131.4375 C 43.625 -131.808594 43.8125 -131.808594 41.574219 -128.453125 Z M 46.796875 23.863281 C 47.914062 22.929688 53.878906 20.878906 57.050781 20.320312 C 59.84375 19.761719 68.421875 15.472656 68.234375 14.542969 C 68.234375 14.355469 68.609375 14.167969 68.980469 13.984375 C 69.914062 13.984375 85.386719 3.542969 95.082031 -3.914062 C 100.863281 -8.203125 104.03125 -11 113.351562 -19.574219 C 119.878906 -25.542969 121.554688 -27.40625 121.554688 -28.710938 C 121.371094 -29.457031 122.113281 -30.390625 130.503906 -39.152344 C 132.929688 -41.761719 134.792969 -43.8125 134.417969 -43.8125 C 134.046875 -43.8125 132.183594 -42.132812 123.421875 -33 C 120.808594 -30.390625 118.574219 -27.964844 118.199219 -27.964844 C 117.640625 -27.59375 117.082031 -27.03125 113.351562 -23.675781 C 110.371094 -20.695312 102.914062 -14.726562 102.726562 -15.101562 C 102.726562 -15.289062 104.964844 -17.152344 107.386719 -19.390625 C 114.097656 -24.980469 118.945312 -29.457031 124.164062 -34.863281 C 131.25 -42.132812 134.792969 -45.304688 135.726562 -45.117188 C 136.285156 -44.929688 136.46875 -45.117188 135.910156 -45.488281 C 135.351562 -45.675781 135.910156 -46.609375 138.519531 -49.03125 C 140.757812 -51.269531 141.316406 -51.640625 140.011719 -50.152344 C 138.335938 -48.101562 137.777344 -46.980469 138.707031 -47.355469 C 139.640625 -47.726562 161.640625 -71.777344 164.996094 -76.066406 C 166.859375 -78.488281 171.148438 -83.710938 174.316406 -87.4375 C 177.859375 -91.726562 180.097656 -94.707031 179.722656 -95.082031 C 179.535156 -95.453125 179.535156 -95.453125 179.910156 -95.269531 C 180.46875 -95.082031 181.402344 -95.828125 181.214844 -96.757812 C 181.214844 -96.945312 183.453125 -99.929688 186.25 -103.65625 C 189.046875 -107.199219 191.28125 -110.183594 191.28125 -110.554688 C 191.28125 -110.742188 192.585938 -112.980469 195.570312 -116.894531 C 197.992188 -119.878906 198.925781 -121.742188 198.925781 -122.488281 C 198.925781 -123.792969 197.808594 -123.046875 195.382812 -119.503906 C 191.65625 -114.097656 182.707031 -103.472656 181.960938 -103.472656 C 181.585938 -103.472656 179.722656 -101.421875 177.859375 -99.183594 C 175.996094 -96.945312 173.011719 -93.21875 170.960938 -91.167969 C 168.910156 -88.929688 165.925781 -85.761719 164.4375 -83.894531 C 157.722656 -76.066406 150.453125 -68.234375 149.894531 -68.234375 C 149.148438 -68.234375 142.25 -60.40625 142.25 -59.660156 C 142.25 -59.472656 140.570312 -57.234375 138.519531 -55 C 132.742188 -48.847656 128.640625 -44.746094 129.386719 -45.863281 C 129.757812 -46.421875 129.945312 -46.796875 129.757812 -46.980469 C 129.386719 -47.355469 122.300781 -40.082031 121.371094 -38.21875 C 120.625 -36.726562 109.625 -25.542969 106.082031 -22.558594 C 105.148438 -21.8125 102.167969 -19.203125 99.554688 -16.777344 C 92.472656 -10.441406 87.625 -6.898438 78.675781 -1.304688 C 67.117188 5.964844 57.980469 11 53.320312 12.492188 C 45.863281 14.726562 32.8125 16.59375 25.542969 16.21875 C 22.371094 16.035156 16.777344 14.355469 13.796875 12.492188 C 8.949219 9.882812 7.085938 4.289062 6.523438 -7.457031 C 6.339844 -13.609375 6.523438 -14.914062 7.085938 -15.472656 C 7.832031 -16.21875 8.761719 -20.695312 8.949219 -24.421875 C 8.949219 -25.167969 9.136719 -26.289062 9.320312 -27.21875 C 9.695312 -27.964844 9.882812 -28.898438 9.882812 -29.082031 C 9.882812 -29.457031 10.8125 -32.8125 11.746094 -36.542969 C 14.726562 -47.914062 23.675781 -72.710938 26.660156 -77.929688 C 27.21875 -79.046875 29.269531 -83.148438 30.949219 -86.878906 C 33.746094 -93.21875 37.660156 -100.675781 43.253906 -110.183594 C 44.371094 -112.046875 45.863281 -114.65625 46.609375 -115.960938 C 47.167969 -117.453125 49.589844 -121.183594 51.828125 -124.539062 C 54.066406 -127.894531 55.742188 -130.878906 55.558594 -131.4375 C 55.558594 -131.996094 55.558594 -132.183594 55.742188 -131.808594 C 56.117188 -130.878906 56.863281 -131.0625 57.421875 -132.554688 C 57.792969 -134.046875 59.660156 -136.65625 63.015625 -140.945312 C 64.132812 -142.25 65.253906 -143.929688 65.4375 -144.488281 C 65.8125 -145.234375 67.117188 -147.285156 68.609375 -149.148438 C 76.625 -160.335938 78.488281 -163.503906 73.640625 -158.46875 L 71.03125 -155.671875 L 73.082031 -158.46875 C 74.199219 -160.148438 75.507812 -161.640625 75.691406 -161.824219 C 76.066406 -162.011719 76.625 -162.757812 76.996094 -163.503906 C 78.117188 -165.554688 90.605469 -178.976562 90.234375 -177.671875 C 89.863281 -176.179688 90.421875 -176.925781 95.640625 -182.148438 C 102.351562 -189.046875 104.964844 -191.65625 109.25 -195.382812 C 111.300781 -197.25 114.097656 -199.859375 115.589844 -201.164062 C 119.691406 -205.078125 133.113281 -215.332031 139.082031 -219.246094 C 141.878906 -221.296875 146.539062 -223.910156 149.148438 -225.027344 C 151.945312 -226.332031 155.113281 -228.011719 156.234375 -228.753906 C 159.027344 -230.246094 163.875 -232.113281 165.367188 -232.296875 C 165.925781 -232.296875 166.671875 -232.113281 166.859375 -231.550781 C 167.605469 -230.0625 167.792969 -222.789062 167.046875 -218.5 C 166.300781 -212.347656 162.945312 -200.976562 159.589844 -193.148438 C 149.519531 -168.910156 129.386719 -143.554688 122.675781 -146.539062 C 121.183594 -147.285156 119.878906 -146.910156 118.199219 -145.417969 C 117.082031 -144.488281 117.082031 -144.113281 117.640625 -143.554688 C 118.011719 -143.183594 118.757812 -141.691406 119.320312 -140.386719 C 120.4375 -137.402344 122.675781 -134.980469 123.792969 -135.539062 C 124.164062 -135.726562 124.726562 -135.539062 124.910156 -134.980469 C 125.097656 -134.417969 125.84375 -134.417969 128.640625 -134.792969 C 130.691406 -135.164062 132.742188 -135.726562 133.300781 -136.097656 C 136.097656 -137.589844 141.316406 -143.367188 144.859375 -148.214844 C 146.910156 -151.199219 149.148438 -154.183594 149.707031 -154.925781 C 154.183594 -160.894531 163.875 -178.417969 167.046875 -186.808594 C 173.199219 -202.28125 176.554688 -215.890625 175.996094 -224.09375 C 175.808594 -228.382812 173.945312 -231.925781 170.402344 -234.722656 C 165.925781 -238.078125 164.808594 -238.265625 156.234375 -237.703125 C 150.265625 -237.519531 148.03125 -237.144531 145.792969 -236.214844 C 138.148438 -233.230469 121.371094 -221.296875 113.351562 -212.910156 C 110.554688 -210.113281 106.828125 -206.382812 105.148438 -204.707031 C 89.300781 -189.789062 73.640625 -173.199219 64.507812 -161.640625 C 61.523438 -157.722656 58.726562 -154.183594 58.355469 -153.621094 C 57.421875 -152.316406 51.457031 -143.367188 50.898438 -142.25 C 49.21875 -138.519531 54.066406 -144.300781 56.304688 -148.589844 C 57.050781 -149.707031 58.914062 -152.316406 60.777344 -154.367188 L 63.945312 -157.910156 L 61.710938 -154.742188 C 60.03125 -152.691406 59.472656 -151.757812 60.21875 -151.570312 C 60.964844 -151.199219 70.097656 -160.707031 70.472656 -162.386719 C 70.660156 -162.945312 70.472656 -163.691406 70.097656 -164.0625 C 69.726562 -164.4375 72.335938 -167.605469 81.097656 -177.300781 C 87.4375 -184.382812 93.21875 -190.535156 94.148438 -191.28125 C 94.894531 -191.839844 93.21875 -189.605469 90.234375 -186.433594 C 85.386719 -181.027344 82.03125 -177.113281 80.914062 -174.875 C 80.726562 -174.503906 80.914062 -174.316406 81.472656 -174.316406 C 82.03125 -174.316406 82.964844 -175.0625 83.335938 -175.996094 C 83.894531 -176.925781 85.015625 -178.417969 85.574219 -179.164062 C 86.503906 -179.910156 88.742188 -182.148438 90.605469 -184.382812 C 92.65625 -186.621094 95.269531 -189.230469 96.574219 -190.351562 C 99.554688 -192.960938 104.402344 -197.433594 105.894531 -198.925781 C 106.640625 -199.671875 107.386719 -200.230469 107.757812 -200.230469 C 108.132812 -200.417969 110.183594 -202.28125 112.421875 -204.707031 C 114.84375 -207.128906 117.082031 -209.554688 117.640625 -209.925781 C 118.199219 -210.113281 117.453125 -209.179688 116.148438 -207.6875 C 114.65625 -206.195312 113.539062 -204.890625 113.726562 -204.707031 C 113.910156 -204.519531 113.167969 -203.402344 111.859375 -202.46875 C 110.554688 -201.164062 109.625 -200.042969 109.625 -199.671875 C 109.625 -199.300781 108.132812 -197.621094 106.269531 -195.941406 C 96.945312 -187.554688 77.558594 -166.488281 68.609375 -155.113281 C 66.183594 -151.945312 63.945312 -149.519531 63.574219 -149.707031 C 63.203125 -149.894531 63.203125 -149.707031 63.386719 -149.519531 C 63.574219 -149.148438 62.828125 -147.65625 61.710938 -146.351562 C 60.777344 -144.859375 58.539062 -141.878906 57.050781 -139.640625 C 55.558594 -137.402344 52.949219 -133.675781 51.269531 -131.25 C 49.589844 -128.828125 46.796875 -124.351562 44.929688 -121.371094 C 42.695312 -117.640625 41.761719 -116.335938 41.574219 -116.894531 C 41.386719 -117.453125 41.761719 -118.386719 42.320312 -119.132812 C 42.878906 -119.878906 43.4375 -120.4375 43.4375 -120.625 C 43.253906 -121.371094 46.796875 -126.960938 47.355469 -126.960938 C 47.539062 -126.960938 47.726562 -127.335938 47.726562 -127.707031 C 47.539062 -128.265625 48.101562 -128.828125 48.660156 -129.199219 C 49.21875 -129.574219 49.589844 -129.945312 49.40625 -130.316406 C 49.21875 -130.503906 49.589844 -131.4375 50.335938 -132.183594 C 51.082031 -132.929688 51.828125 -133.859375 51.828125 -134.046875 C 51.828125 -134.417969 51.828125 -134.792969 51.828125 -135.164062 C 51.828125 -135.351562 52.203125 -135.539062 52.761719 -135.726562 C 53.132812 -135.726562 53.320312 -135.910156 53.132812 -136.285156 C 52.761719 -136.84375 55.742188 -140.757812 56.675781 -140.757812 C 56.863281 -140.945312 57.234375 -141.316406 57.234375 -142.0625 C 57.234375 -142.621094 57.609375 -143.183594 57.980469 -143.183594 C 58.539062 -143.183594 59.101562 -144.113281 59.472656 -145.046875 C 60.21875 -147.285156 63.386719 -151.386719 64.878906 -151.945312 C 65.996094 -152.503906 66.183594 -154.183594 64.878906 -153.996094 C 64.507812 -153.996094 59.101562 -148.773438 54.625 -143.554688 C 49.589844 -138.148438 39.523438 -122.859375 39.523438 -120.808594 C 39.710938 -120.4375 39.152344 -118.945312 38.59375 -117.640625 C 37.847656 -116.335938 37.101562 -114.65625 36.914062 -113.910156 C 36.542969 -113.167969 35.609375 -111.675781 35.050781 -110.371094 C 32.8125 -106.640625 29.082031 -99.371094 26.847656 -94.335938 C 25.542969 -91.726562 23.492188 -87.4375 22.371094 -84.640625 C 21.066406 -82.03125 18.269531 -75.132812 16.035156 -69.539062 C 8.574219 -50.898438 4.101562 -35.050781 5.59375 -33.746094 C 5.964844 -33.371094 6.523438 -33.183594 6.710938 -33.558594 C 6.898438 -33.746094 7.085938 -33.183594 7.085938 -32.625 C 7.085938 -31.695312 6.898438 -31.507812 6.339844 -31.695312 C 5.964844 -31.878906 5.59375 -31.695312 5.59375 -31.507812 C 5.59375 -31.132812 5.21875 -30.949219 4.660156 -30.949219 C 4.101562 -30.949219 3.914062 -30.574219 4.472656 -29.082031 C 4.660156 -27.59375 4.660156 -27.21875 4.101562 -27.21875 C 3.542969 -27.21875 3.167969 -26.660156 2.984375 -26.101562 C 2.050781 -19.574219 0.933594 -14.542969 0.746094 -15.472656 C 0.371094 -18.644531 2.238281 -30.761719 4.101562 -38.59375 C 7.269531 -51.082031 10.441406 -60.40625 16.59375 -74.761719 C 19.761719 -81.84375 22.1875 -87.8125 22.1875 -88.183594 C 22 -88.554688 21.8125 -88.183594 21.441406 -87.4375 C 20.507812 -85.386719 19.949219 -85.574219 20.878906 -87.4375 C 21.253906 -88.371094 21.8125 -88.929688 22.1875 -88.929688 C 22.558594 -88.554688 26.289062 -95.453125 26.101562 -96.015625 C 25.914062 -96.199219 26.289062 -96.757812 26.472656 -97.132812 C 27.03125 -97.691406 27.03125 -97.878906 26.472656 -97.503906 C 26.101562 -97.320312 25.726562 -97.320312 25.726562 -97.691406 C 25.726562 -97.878906 26.101562 -98.25 26.472656 -98.25 C 27.40625 -98.25 28.898438 -101.046875 28.339844 -102.167969 C 28.152344 -102.914062 29.457031 -105.894531 33.746094 -113.910156 C 35.050781 -116.335938 35.980469 -118.386719 35.796875 -118.386719 C 35.421875 -118.945312 34.117188 -117.082031 31.132812 -112.234375 C 29.457031 -109.25 27.777344 -106.082031 27.03125 -104.964844 C 20.878906 -94.523438 20.507812 -93.777344 8.949219 -67.675781 C 7.832031 -65.253906 6.339844 -60.964844 5.59375 -57.792969 C 4.847656 -55 3.355469 -49.964844 2.421875 -46.980469 C 0.558594 -40.644531 -2.421875 -28.152344 -2.984375 -22.558594 C -3.167969 -20.507812 -3.167969 -15.289062 -2.984375 -11 C -2.421875 -3.914062 -2.238281 -2.796875 -0.746094 1.679688 C 0.933594 6.152344 3.355469 10.253906 4.660156 11.371094 C 5.035156 11.746094 5.964844 12.863281 6.898438 13.984375 C 11.1875 19.949219 19.574219 24.238281 29.269531 25.355469 C 32.625 25.726562 46.050781 24.609375 46.796875 23.863281 Z M 170.773438 -87.625 C 180.65625 -98.996094 181.214844 -99.742188 177.300781 -94.523438 C 175.25 -91.914062 171.519531 -87.625 169.097656 -85.015625 C 164.621094 -80.351562 164.621094 -80.539062 170.773438 -87.625 Z M 155.113281 -70.660156 C 156.605469 -71.777344 157.351562 -71.777344 156.417969 -70.472656 C 156.046875 -69.914062 155.300781 -69.539062 154.925781 -69.539062 C 154.183594 -69.539062 154.183594 -69.726562 155.113281 -70.660156 Z M 152.503906 -64.507812 C 154.183594 -66.371094 154.742188 -66.558594 153.808594 -65.4375 C 152.503906 -63.761719 150.082031 -61.152344 150.082031 -61.523438 C 150.082031 -61.710938 151.199219 -63.015625 152.503906 -64.507812 Z M 148.402344 -63.761719 C 148.589844 -64.132812 148.960938 -64.507812 149.148438 -64.507812 C 149.335938 -64.507812 149.148438 -64.132812 148.773438 -63.761719 C 148.402344 -63.203125 148.03125 -62.828125 148.03125 -62.828125 C 147.84375 -62.828125 148.03125 -63.203125 148.402344 -63.761719 Z M 148.589844 -60.03125 C 148.960938 -60.589844 149.335938 -60.964844 149.335938 -60.964844 C 149.519531 -60.964844 149.335938 -60.589844 148.960938 -60.03125 C 148.773438 -59.660156 148.402344 -59.285156 148.214844 -59.285156 C 148.03125 -59.285156 148.214844 -59.660156 148.589844 -60.03125 Z M 133.300781 -46.796875 C 133.488281 -46.796875 133.300781 -46.234375 132.929688 -45.488281 C 132.183594 -44.746094 132.183594 -44.746094 131.996094 -45.488281 C 131.996094 -46.234375 132.929688 -47.167969 133.300781 -46.796875 Z M 126.402344 -39.710938 C 126.402344 -39.523438 126.03125 -38.964844 125.285156 -38.21875 C 124.726562 -37.472656 124.164062 -37.101562 124.164062 -37.285156 C 123.980469 -38.03125 126.03125 -40.082031 126.402344 -39.710938 Z M 98.996094 -195.199219 C 97.132812 -193.519531 95.828125 -192.214844 96.015625 -192.585938 C 96.386719 -193.332031 102.351562 -199.113281 102.351562 -198.738281 C 102.351562 -198.554688 100.863281 -197.0625 98.996094 -195.199219 Z M 104.03125 -200.042969 C 103.65625 -199.484375 103.097656 -198.925781 102.914062 -198.925781 C 102.726562 -198.925781 103.097656 -199.484375 103.65625 -200.042969 C 104.03125 -200.605469 104.589844 -201.164062 104.777344 -201.164062 C 104.777344 -201.164062 104.589844 -200.605469 104.03125 -200.042969 Z M 101.792969 -190.351562 C 102.726562 -191.46875 103.65625 -192.214844 103.65625 -192.214844 C 103.84375 -192.214844 103.285156 -191.46875 102.351562 -190.351562 C 101.421875 -189.230469 100.488281 -188.484375 100.300781 -188.484375 C 100.300781 -188.484375 100.863281 -189.230469 101.792969 -190.351562 Z M 94.894531 -183.453125 C 97.132812 -185.6875 98.8125 -187.179688 98.4375 -186.808594 C 97.691406 -185.316406 90.980469 -178.230469 90.792969 -178.792969 C 90.792969 -179.164062 92.65625 -181.214844 94.894531 -183.453125 Z M 30.574219 -96.574219 C 30.574219 -97.320312 30.761719 -98.066406 31.320312 -98.4375 C 31.695312 -98.8125 31.878906 -99.371094 31.695312 -99.742188 C 31.320312 -100.300781 34.117188 -105.335938 34.863281 -105.523438 C 35.234375 -105.523438 35.421875 -105.707031 35.050781 -105.894531 C 34.304688 -106.453125 38.59375 -114.285156 39.710938 -113.726562 C 39.898438 -113.726562 40.082031 -114.097656 40.082031 -114.65625 C 40.082031 -115.21875 40.269531 -115.589844 40.828125 -115.777344 C 41.386719 -115.777344 41.386719 -115.21875 40.269531 -113.167969 C 39.710938 -111.675781 38.777344 -110.183594 38.40625 -109.808594 C 38.03125 -109.4375 37.660156 -108.878906 37.847656 -108.320312 C 37.847656 -108.132812 37.472656 -107.574219 37.101562 -107.386719 C 36.542969 -107.199219 36.355469 -106.640625 36.542969 -106.082031 C 36.914062 -105.148438 35.980469 -104.03125 35.050781 -104.03125 C 34.863281 -104.21875 34.492188 -103.65625 34.492188 -103.285156 C 34.492188 -102.539062 34.492188 -102.351562 35.050781 -102.539062 C 35.421875 -102.914062 35.234375 -102.539062 34.675781 -101.980469 C 33.929688 -101.234375 33.746094 -100.675781 33.929688 -100.488281 C 34.117188 -100.300781 33.929688 -100.117188 33.558594 -100.300781 C 33 -100.300781 32.8125 -99.929688 32.8125 -98.996094 C 32.8125 -98.25 32.253906 -97.132812 31.695312 -96.386719 L 30.574219 -95.269531 Z M 15.847656 -57.792969 C 15.101562 -56.863281 15.101562 -56.863281 15.289062 -57.609375 C 15.289062 -58.167969 15.472656 -58.914062 15.472656 -59.472656 C 15.472656 -59.84375 15.660156 -60.03125 15.847656 -60.21875 C 16.21875 -60.21875 16.40625 -59.84375 16.40625 -59.472656 C 16.59375 -59.101562 16.21875 -58.355469 15.847656 -57.792969 Z M 25.167969 -86.320312 C 25.914062 -87.25 26.289062 -88.371094 26.289062 -88.929688 C 26.289062 -89.675781 26.472656 -90.605469 26.847656 -90.980469 C 29.082031 -94.148438 29.644531 -94.894531 30.015625 -94.523438 C 30.203125 -94.523438 30.015625 -93.777344 29.457031 -93.21875 C 28.710938 -92.285156 28.710938 -91.914062 29.269531 -91.726562 C 29.828125 -91.351562 29.828125 -90.980469 29.269531 -89.675781 C 28.898438 -88.929688 28.523438 -88.554688 28.523438 -88.929688 C 28.339844 -89.675781 28.339844 -89.675781 27.59375 -88.929688 C 27.21875 -88.554688 26.660156 -87.25 26.472656 -85.945312 C 25.914062 -84.453125 25.542969 -83.894531 24.980469 -84.082031 C 23.675781 -84.082031 23.675781 -84.640625 25.167969 -86.320312 Z M 22 -78.488281 C 22.371094 -78.675781 22.558594 -79.046875 22.371094 -79.234375 C 21.8125 -80.167969 22.558594 -81.84375 23.492188 -82.03125 C 24.980469 -82.589844 24.980469 -80.914062 23.675781 -79.609375 C 23.304688 -79.234375 22.371094 -77.558594 21.8125 -76.066406 C 20.695312 -73.457031 20.320312 -73.082031 19.761719 -73.640625 C 19.203125 -74.015625 21.066406 -77.929688 22 -78.488281 Z M 19.203125 -72.335938 C 19.574219 -72.335938 19.761719 -71.964844 19.574219 -71.40625 C 19.390625 -70.84375 19.574219 -70.660156 19.949219 -71.03125 C 20.320312 -71.21875 20.507812 -71.21875 20.507812 -71.03125 C 20.507812 -70.660156 20.320312 -70.285156 20.136719 -69.914062 C 19.949219 -69.355469 19.574219 -69.539062 19.203125 -70.285156 C 18.269531 -71.589844 18.269531 -72.148438 19.203125 -72.335938 Z M 15.660156 -63.574219 C 16.21875 -63.203125 17.339844 -66.183594 16.777344 -67.117188 C 16.59375 -67.488281 16.59375 -67.488281 17.152344 -67.304688 C 17.710938 -66.929688 17.710938 -67.117188 17.523438 -67.675781 C 16.964844 -68.609375 17.339844 -70.097656 18.085938 -70.097656 C 18.644531 -70.285156 18.457031 -69.167969 17.898438 -66.558594 C 17.710938 -65.625 17.710938 -65.4375 18.269531 -65.8125 C 18.644531 -65.996094 18.828125 -65.996094 18.644531 -65.625 C 18.457031 -65.253906 17.898438 -65.066406 17.710938 -65.253906 C 17.339844 -65.4375 17.152344 -65.253906 17.339844 -64.691406 C 17.339844 -63.574219 16.035156 -62.457031 15.472656 -63.386719 C 15.289062 -63.761719 15.289062 -63.761719 15.660156 -63.574219 Z M 14.914062 -61.523438 C 15.660156 -61.523438 15.660156 -61.335938 15.472656 -60.589844 C 14.914062 -59.472656 13.421875 -58.167969 13.421875 -58.726562 C 13.421875 -60.03125 14.167969 -61.335938 14.914062 -61.523438 Z M 12.304688 -55.558594 C 12.492188 -55.929688 12.863281 -56.304688 13.050781 -56.304688 C 13.238281 -56.304688 13.421875 -56.117188 13.238281 -55.558594 C 13.050781 -55.183594 12.863281 -54.8125 12.492188 -54.8125 C 12.304688 -54.8125 12.117188 -55.183594 12.304688 -55.558594 Z M 11.558594 -53.132812 C 11.933594 -53.878906 12.117188 -53.691406 12.117188 -52.761719 C 12.304688 -52.203125 11.933594 -51.640625 11.746094 -51.640625 C 11 -51.640625 11 -52.203125 11.558594 -53.132812 Z M 10.066406 -43.4375 C 10.066406 -43.253906 10.625 -44.183594 11.371094 -45.675781 C 11.933594 -46.980469 12.304688 -47.726562 12.304688 -46.980469 C 11.746094 -44.558594 10.441406 -41.574219 10.066406 -41.949219 C 9.695312 -42.132812 9.320312 -41.949219 9.136719 -41.574219 C 8.949219 -41.015625 8.761719 -41.015625 8.761719 -41.203125 C 8.574219 -41.949219 10.066406 -44.183594 10.066406 -43.4375 Z M 7.269531 -30.574219 C 8.015625 -33.558594 8.574219 -33.558594 8.015625 -30.574219 C 7.644531 -29.082031 7.269531 -27.777344 7.085938 -27.59375 C 6.710938 -27.03125 6.710938 -28.710938 7.269531 -30.574219 Z M 27.59375 -101.605469 C 27.964844 -101.792969 27.964844 -101.605469 27.964844 -101.234375 C 27.59375 -100.300781 27.21875 -100.117188 27.21875 -100.863281 C 27.21875 -101.046875 27.40625 -101.421875 27.59375 -101.605469 Z M 23.304688 -92.285156 C 23.863281 -93.777344 24.609375 -94.894531 24.796875 -94.894531 C 24.796875 -94.707031 24.421875 -93.402344 23.675781 -92.097656 C 22 -88.929688 21.8125 -88.929688 23.304688 -92.285156 Z M 30.761719 -106.640625 C 30.203125 -105.707031 29.644531 -104.777344 29.644531 -104.402344 C 29.644531 -104.21875 30.203125 -104.589844 30.949219 -105.523438 C 32.441406 -107.574219 32.253906 -108.691406 30.761719 -106.640625 Z M 79.046875 -171.332031 C 80.726562 -173.199219 80.351562 -173.945312 78.675781 -172.453125 C 77.742188 -171.707031 77.183594 -170.960938 77.183594 -170.589844 C 77.183594 -169.46875 77.742188 -169.65625 79.046875 -171.332031 Z M 44.558594 -132.742188 C 44.371094 -132.367188 44.371094 -132.183594 44.929688 -132.367188 C 45.304688 -132.554688 46.050781 -133.488281 46.421875 -134.417969 C 46.796875 -135.351562 47.726562 -136.84375 48.660156 -137.777344 C 50.152344 -139.265625 50.523438 -140.199219 49.589844 -140.199219 C 49.21875 -140.199219 45.675781 -134.980469 44.558594 -132.742188 Z M 44.558594 -132.742188 "/></g></g></g><g fill="rgb(50.19989%, 50.19989%, 50.19989%)" fill-opacity="1"><g transform="translate(264.998953, 301.591058)"><g><path d="M 50.152344 -81.472656 C 51.082031 -81.097656 51.640625 -80.351562 51.828125 -79.421875 C 52.203125 -78.488281 52.386719 -78.117188 53.320312 -78.488281 C 53.691406 -78.675781 54.253906 -78.488281 54.253906 -78.117188 C 54.253906 -77.558594 54.8125 -77.558594 55.742188 -78.117188 C 56.863281 -78.863281 54.625 -82.964844 52.203125 -85.015625 C 48.660156 -87.8125 45.304688 -88.929688 39.523438 -88.742188 C 33.371094 -88.742188 26.660156 -87.4375 15.472656 -84.269531 L 13.050781 -83.523438 L 14.542969 -87.8125 C 15.472656 -90.046875 17.710938 -96.015625 19.574219 -100.863281 C 23.675781 -111.675781 24.050781 -113.539062 24.050781 -119.132812 C 24.050781 -123.234375 24.050781 -123.605469 22.929688 -123.980469 C 22.1875 -124.351562 21.625 -125.285156 21.253906 -126.589844 C 20.695312 -128.265625 20.320312 -128.640625 18.457031 -129.386719 C 15.660156 -130.316406 13.796875 -130.132812 13.609375 -128.640625 C 13.609375 -128.082031 12.675781 -125.84375 11.933594 -123.792969 C 10.253906 -120.0625 9.882812 -117.828125 10.8125 -117.828125 C 11.1875 -117.828125 11.1875 -117.453125 11 -117.082031 C 10.8125 -116.523438 11.1875 -115.777344 11.558594 -115.21875 C 12.492188 -114.097656 12.492188 -113.910156 11.371094 -110.554688 C 10.625 -108.691406 10.066406 -106.828125 9.695312 -106.453125 C 9.507812 -106.269531 8.015625 -102.167969 6.523438 -97.691406 C 4.847656 -93.21875 2.609375 -87.066406 1.304688 -83.894531 C 0.1875 -80.914062 -0.933594 -78.117188 -0.933594 -77.558594 C -1.117188 -77.183594 -4.660156 -74.945312 -8.949219 -72.894531 C -13.050781 -70.84375 -17.710938 -68.421875 -19.203125 -67.488281 C -20.507812 -66.558594 -22.1875 -65.4375 -22.746094 -65.066406 C -24.238281 -64.132812 -29.828125 -61.523438 -31.878906 -60.777344 C -32.625 -60.40625 -33.929688 -59.660156 -34.675781 -58.914062 C -35.609375 -58.355469 -38.21875 -56.488281 -41.015625 -54.8125 C -46.796875 -51.457031 -55.183594 -45.863281 -60.40625 -42.132812 C -62.457031 -40.828125 -64.320312 -39.523438 -64.507812 -39.523438 C -65.253906 -39.523438 -73.269531 -33.183594 -82.03125 -25.355469 C -92.097656 -16.40625 -102.914062 -5.40625 -107.757812 1.117188 C -109.625 3.542969 -111.488281 5.40625 -111.675781 5.40625 C -112.046875 5.40625 -112.792969 6.152344 -113.539062 6.898438 C -114.097656 7.644531 -114.472656 8.015625 -114.472656 7.832031 C -114.472656 7.457031 -113.910156 6.523438 -112.980469 5.59375 C -111.300781 3.914062 -111.117188 3.355469 -111.859375 3.355469 C -112.605469 3.355469 -115.777344 8.574219 -115.402344 9.136719 C -115.03125 9.695312 -115.21875 9.695312 -115.589844 9.507812 C -116.335938 8.949219 -118.386719 12.304688 -118.011719 13.421875 C -117.828125 13.984375 -118.386719 14.914062 -119.320312 15.847656 C -120.0625 16.777344 -121.371094 19.015625 -122.113281 20.878906 C -123.234375 23.675781 -123.421875 24.980469 -123.234375 27.59375 C -123.046875 30.390625 -123.234375 30.761719 -123.792969 30.574219 C -124.351562 30.390625 -124.539062 30.574219 -124.539062 30.949219 C -124.539062 31.507812 -124.910156 31.878906 -125.472656 32.066406 C -126.402344 32.441406 -126.402344 34.117188 -125.472656 34.117188 C -125.097656 34.117188 -124.539062 33.746094 -124.164062 33.371094 C -123.792969 32.8125 -123.605469 33 -123.605469 33.929688 C -123.605469 34.675781 -123.792969 35.050781 -124.351562 35.050781 C -125.285156 35.050781 -125.285156 36.167969 -124.539062 42.878906 C -124.164062 48.285156 -122.488281 55 -120.996094 57.980469 C -119.320312 60.964844 -113.167969 66.183594 -110.183594 66.929688 C -107.574219 67.488281 -99.742188 66.929688 -96.574219 65.8125 C -92.097656 64.320312 -83.523438 59.660156 -77.742188 55.558594 C -65.253906 46.609375 -52.015625 33.746094 -40.269531 19.015625 C -38.964844 17.152344 -37.285156 15.101562 -36.542969 14.542969 C -33.558594 11.371094 -27.03125 1.304688 -22.371094 -7.269531 C -21.625 -8.574219 -19.574219 -12.304688 -17.898438 -15.472656 C -16.035156 -18.644531 -11.746094 -27.21875 -8.390625 -34.492188 C -2.050781 -47.726562 -0.371094 -51.457031 5.40625 -64.878906 L 8.574219 -72.148438 L 14.726562 -74.386719 C 31.132812 -80.351562 45.488281 -83.148438 50.152344 -81.472656 Z M -83.894531 53.320312 C -84.828125 53.691406 -85.574219 54.066406 -85.574219 53.878906 C -85.574219 53.691406 -84.828125 53.320312 -83.894531 52.761719 C -82.964844 52.386719 -82.402344 52.015625 -82.402344 52.203125 C -82.402344 52.386719 -82.964844 52.949219 -83.894531 53.320312 Z M -74.574219 46.796875 C -77.558594 48.847656 -80.351562 51.082031 -80.914062 51.457031 C -81.285156 51.828125 -81.660156 51.828125 -81.660156 51.640625 C -81.660156 51.457031 -79.792969 49.589844 -77.183594 47.726562 C -74.761719 45.863281 -71.589844 43.253906 -70.097656 41.761719 C -68.609375 40.457031 -67.304688 39.335938 -67.117188 39.335938 C -66.929688 39.152344 -65.4375 37.660156 -63.761719 35.980469 C -60.40625 32.253906 -58.539062 30.574219 -58.167969 31.132812 C -57.609375 31.507812 -69.167969 42.695312 -74.574219 46.796875 Z M -54.253906 26.847656 C -55.742188 28.710938 -57.980469 30.574219 -57.980469 30.203125 C -57.980469 30.015625 -56.675781 28.898438 -55.183594 27.40625 C -52.761719 24.980469 -52.761719 24.980469 -54.253906 26.847656 Z M -50.335938 22.371094 C -51.269531 23.492188 -52.015625 24.421875 -52.203125 24.421875 C -52.574219 24.421875 -52.015625 23.492188 -51.082031 22.371094 C -48.847656 19.574219 -48.472656 19.574219 -50.335938 22.371094 Z M -49.40625 15.472656 C -50.152344 16.40625 -50.898438 17.152344 -51.082031 17.339844 C -51.457031 17.710938 -51.082031 16.964844 -50.335938 15.847656 C -48.472656 13.421875 -47.914062 13.238281 -49.40625 15.472656 Z M -45.117188 10.066406 C -45.863281 11.371094 -46.796875 12.117188 -46.796875 11.371094 C -46.796875 11.1875 -46.234375 10.441406 -45.675781 9.882812 C -44.558594 8.949219 -44.558594 8.949219 -45.117188 10.066406 Z M -41.386719 11.558594 C -41.761719 12.117188 -42.695312 13.238281 -43.4375 13.984375 C -44.746094 15.101562 -44.746094 15.101562 -43.066406 12.675781 C -41.386719 10.253906 -40.457031 9.695312 -41.386719 11.558594 Z M -41.015625 4.101562 C -41.203125 4.660156 -42.132812 5.964844 -42.878906 6.710938 C -43.625 7.644531 -44 7.832031 -43.8125 7.269531 C -43.4375 6.710938 -42.507812 5.59375 -41.761719 4.660156 C -41.015625 3.730469 -40.644531 3.542969 -41.015625 4.101562 Z M -35.234375 0.746094 C -35.421875 1.304688 -35.796875 1.679688 -35.980469 1.679688 C -36.167969 1.679688 -35.980469 1.304688 -35.609375 0.746094 C -35.421875 0.1875 -35.050781 -0.371094 -34.863281 -0.371094 C -34.675781 -0.371094 -34.863281 0.1875 -35.234375 0.746094 Z M -30.203125 -5.964844 C -30.390625 -5.40625 -30.761719 -5.21875 -31.132812 -5.21875 C -31.320312 -5.21875 -31.320312 -5.40625 -30.949219 -5.964844 C -30.574219 -6.339844 -30.203125 -6.710938 -30.203125 -6.710938 C -30.015625 -6.710938 -30.015625 -6.339844 -30.203125 -5.964844 Z M -18.457031 -27.40625 C -19.203125 -26.101562 -19.949219 -25.355469 -19.949219 -25.914062 C -19.949219 -26.472656 -18.085938 -29.457031 -17.898438 -29.269531 C -17.710938 -29.082031 -18.085938 -28.339844 -18.457031 -27.40625 Z M -13.984375 -49.03125 C -15.101562 -46.421875 -16.21875 -43.8125 -16.40625 -43.253906 C -16.59375 -42.507812 -18.085938 -39.898438 -19.574219 -37.285156 C -21.066406 -34.492188 -22.929688 -30.949219 -23.863281 -29.269531 C -25.914062 -24.796875 -30.761719 -16.40625 -35.980469 -7.832031 C -38.40625 -3.730469 -40.644531 0 -41.015625 0.746094 C -42.132812 3.542969 -53.132812 17.898438 -60.03125 25.542969 C -62.457031 28.339844 -63.945312 30.203125 -63.386719 29.828125 C -62.828125 29.644531 -60.40625 27.21875 -57.980469 24.609375 C -55.558594 22.1875 -54.066406 20.695312 -54.625 21.625 C -55.929688 23.304688 -70.097656 37.472656 -75.132812 41.761719 C -81.285156 47.167969 -88.742188 52.203125 -95.269531 55.371094 C -100.675781 58.167969 -105.523438 59.285156 -108.320312 58.914062 C -109.25 58.726562 -109.808594 58.539062 -109.625 58.355469 C -109.25 58.355469 -109.4375 58.167969 -109.808594 57.792969 C -110.554688 57.421875 -110.554688 57.234375 -109.625 57.234375 C -109.25 57.234375 -108.691406 57.050781 -108.691406 56.863281 C -108.691406 56.488281 -109.25 56.304688 -109.996094 56.488281 C -111.300781 56.863281 -116.707031 55 -117.640625 53.878906 C -118.011719 53.507812 -118.386719 51.457031 -118.574219 49.21875 C -118.945312 44.929688 -118.757812 43.066406 -116.523438 34.863281 C -112.980469 20.320312 -101.234375 3.730469 -80.914062 -15.660156 C -74.015625 -22.371094 -61.523438 -33 -55.929688 -36.914062 C -47.539062 -42.878906 -35.609375 -50.710938 -31.695312 -52.761719 C -29.457031 -54.066406 -26.660156 -55.558594 -25.542969 -56.304688 C -23.304688 -57.609375 -6.710938 -65.996094 -6.710938 -65.8125 C -6.710938 -65.4375 -11.558594 -54.066406 -13.984375 -49.03125 Z M -3.542969 -70.84375 C -3.730469 -70.285156 -7.457031 -68.234375 -14.355469 -64.691406 C -35.421875 -54.066406 -57.234375 -40.082031 -66.183594 -31.132812 C -67.863281 -29.644531 -71.21875 -26.472656 -73.640625 -24.421875 C -75.878906 -22.558594 -79.609375 -19.203125 -81.660156 -17.152344 C -83.894531 -14.914062 -87.996094 -11.1875 -90.605469 -8.574219 C -96.574219 -2.796875 -96.945312 -3.355469 -91.167969 -9.320312 C -88.742188 -11.558594 -87.066406 -13.796875 -87.25 -14.167969 C -87.625 -14.726562 -72.523438 -28.523438 -65.066406 -34.492188 C -57.980469 -40.269531 -48.285156 -46.980469 -41.761719 -51.082031 C -33 -56.488281 -22.558594 -62.457031 -17.710938 -65.066406 C -3.730469 -72.335938 -3.167969 -72.523438 -3.542969 -70.84375 Z M 11 -75.878906 C 10.066406 -75.691406 9.882812 -75.691406 10.253906 -76.066406 C 10.441406 -76.4375 11 -76.625 11.371094 -76.4375 C 11.933594 -76.25 11.558594 -76.066406 11 -75.878906 Z M 27.59375 -80.726562 C 26.660156 -80.539062 25.355469 -80.351562 24.421875 -80.351562 L 22.746094 -80.351562 L 24.421875 -81.097656 C 26.472656 -81.84375 34.492188 -83.894531 35.796875 -83.894531 C 36.355469 -83.894531 36.726562 -84.269531 36.726562 -84.453125 C 36.726562 -85.199219 38.21875 -85.199219 38.59375 -84.453125 C 38.777344 -83.894531 38.964844 -83.894531 39.152344 -84.453125 C 39.335938 -84.828125 40.644531 -85.015625 42.507812 -85.015625 C 44.371094 -85.015625 45.117188 -84.828125 44.929688 -84.453125 C 44.746094 -84.082031 44.929688 -83.894531 46.050781 -84.082031 C 46.609375 -84.269531 47.167969 -84.082031 46.980469 -83.894531 C 46.980469 -83.710938 45.675781 -83.523438 44.371094 -83.523438 C 41.386719 -83.523438 29.644531 -81.660156 27.59375 -80.726562 Z M 29.269531 -146.910156 C 29.644531 -146.910156 30.390625 -146.539062 30.761719 -145.792969 C 31.320312 -145.234375 32.253906 -144.488281 32.8125 -144.300781 C 34.492188 -143.554688 37.101562 -143.742188 37.660156 -144.488281 C 38.21875 -145.046875 38.59375 -146.910156 38.40625 -148.589844 C 38.40625 -149.148438 37.847656 -149.894531 37.101562 -150.082031 C 36.167969 -150.453125 35.796875 -150.824219 36.167969 -151.757812 C 36.355469 -152.503906 36.167969 -153.0625 35.609375 -153.4375 C 35.050781 -153.621094 34.675781 -154.183594 34.675781 -154.367188 C 34.675781 -155.300781 33.371094 -156.417969 31.695312 -156.976562 C 30.574219 -157.539062 30.015625 -157.351562 29.457031 -156.792969 C 28.898438 -156.417969 28.152344 -156.046875 27.777344 -156.046875 C 26.660156 -156.046875 25.726562 -154.925781 25.726562 -153.4375 C 25.726562 -151.945312 28.339844 -146.910156 29.269531 -146.910156 Z M 29.269531 -146.910156 "/></g></g></g><path stroke-linecap="butt" transform="matrix(0.75, 0, 0, 0.75, 1.127867, 73.6017)" fill="none" stroke-linejoin="miter" d="M 210.365983 64.327946 C 209.089941 65.296696 208.121191 66.572738 208.121191 66.812321 C 208.360774 67.541488 209.334733 67.057113 211.334733 64.812321 C 213.824316 62.567529 213.09515 62.077946 210.365983 64.327946 Z M 226.022234 272.854001 C 226.751401 272.854001 231.485776 268.359209 230.694109 268.359209 C 230.454526 268.359209 229.240984 269.390459 227.720151 270.604001 C 226.506609 271.880043 225.475359 272.854001 226.022234 272.854001 Z M 152.892021 121.739408 C 151.678479 123.9842 150.949312 125.682117 151.194104 125.682117 C 151.438896 125.682117 152.407646 124.223783 153.194104 122.95295 C 154.168063 121.494616 155.381604 119.7342 155.626396 119.249825 C 156.168063 118.76545 156.412854 117.973783 156.168063 117.734199 C 155.626396 117.244616 155.928479 117.244616 152.892021 121.739408 Z M 159.871188 324.801921 C 161.386813 323.58838 169.339939 320.854004 173.527439 320.067546 C 177.287856 319.338379 188.699315 313.635254 188.454523 312.359212 C 188.454523 312.114421 188.944107 311.874837 189.485773 311.630046 C 190.699315 311.630046 211.334733 297.734211 224.261817 287.781086 C 231.970151 282.07796 236.220151 278.312335 248.60036 266.906084 C 257.339944 258.952959 259.584736 256.463375 259.584736 254.708167 C 259.277444 253.734208 260.313903 252.458167 271.48057 240.807124 C 274.694112 237.286291 277.183696 234.557124 276.699321 234.557124 C 276.209737 234.557124 273.725362 236.801916 262.069111 248.999833 C 258.553486 252.458167 255.579528 255.739417 255.089944 255.739417 C 254.365986 256.223792 253.574319 256.952959 248.60036 261.442542 C 244.652443 265.385251 234.699318 273.338376 234.459734 272.854001 C 234.459734 272.60921 237.433693 270.119626 240.647235 267.145668 C 249.63161 259.682125 256.063903 253.734208 263.04307 246.51025 C 272.51182 236.801916 277.183696 232.614415 278.459737 232.859207 C 279.183696 233.09879 279.428487 232.859207 278.699321 232.369624 C 277.970154 232.06754 278.699321 230.853999 282.157654 227.640457 C 285.131613 224.666498 285.92328 224.119623 284.162863 226.119623 C 281.918071 228.853998 281.188904 230.369624 282.402446 229.885248 C 283.678488 229.338373 312.99099 197.296705 317.480573 191.588371 C 319.970157 188.374829 325.673282 181.395662 329.923282 176.416495 C 334.652449 170.71337 337.626408 166.708161 337.142033 166.223786 C 336.83995 165.734203 336.83995 165.734203 337.386825 165.978994 C 338.115991 166.223786 339.329533 165.249828 339.084741 163.973786 C 339.084741 163.734202 342.0587 159.786286 345.819117 154.812327 C 349.522242 150.077952 352.496201 146.072743 352.496201 145.588368 C 352.496201 145.343576 354.256617 142.369618 358.261826 137.150867 C 361.480576 133.145659 362.694118 130.656075 362.694118 129.687325 C 362.694118 127.926908 361.235784 128.958159 358.022243 133.630034 C 353.043076 140.853993 341.08995 155.057119 340.115991 155.057119 C 339.569116 155.057119 337.142033 157.786285 334.652449 160.760244 C 332.168074 163.734202 328.162866 168.708161 325.42849 171.442536 C 322.699324 174.416495 318.694115 178.661287 316.751407 181.15087 C 307.772239 191.588371 298.058697 202.025872 297.32953 202.025872 C 296.36078 202.025872 287.136821 212.468581 287.136821 213.437331 C 287.136821 213.682122 284.892029 216.713373 282.157654 219.687331 C 274.454529 227.88004 268.990987 233.343582 270.022237 231.827957 C 270.506612 231.09879 270.751404 230.614415 270.506612 230.369624 C 270.022237 229.885248 260.553486 239.531082 259.277444 242.020666 C 258.308694 244.025874 243.621193 258.952959 238.949318 262.900876 C 237.673276 263.932126 233.730568 267.390459 230.209734 270.604001 C 220.803484 279.104002 214.308691 283.775877 202.412857 291.239419 C 187.001398 300.947753 174.803481 307.687337 168.548272 309.630045 C 158.657646 312.661296 141.240978 315.150879 131.532644 314.604004 C 127.345144 314.364421 119.876394 312.114421 115.871185 309.630045 C 109.438893 306.171712 106.949309 298.702961 106.162851 283.04671 C 105.918059 274.854001 106.162851 273.093585 106.949309 272.364418 C 107.923268 271.395668 109.19931 265.385251 109.438893 260.411292 C 109.438893 259.437334 109.683685 257.921709 109.923268 256.708167 C 110.412851 255.739417 110.652435 254.463375 110.652435 254.218583 C 110.652435 253.734208 111.928476 249.244625 113.142018 244.265458 C 117.147227 229.093582 129.043061 196.077955 133.048269 189.098787 C 133.777436 187.583162 136.506603 182.11962 138.751395 177.145662 C 142.45452 168.708161 147.67327 158.755035 155.136813 146.072743 C 156.657646 143.583159 158.657646 140.124826 159.631605 138.364409 C 160.355563 136.421701 163.636813 131.447742 166.610772 126.958158 C 169.58473 122.463366 171.829522 118.520658 171.58473 117.734199 C 171.58473 117.005033 171.58473 116.760241 171.829522 117.244616 C 172.313897 118.520658 173.282647 118.275866 174.074314 116.275866 C 174.558689 114.270658 177.048272 110.812324 181.475356 105.046699 C 182.996189 103.348782 184.511815 101.10399 184.756606 100.374823 C 185.240981 99.343573 187.001398 96.614406 188.944107 94.124823 C 199.621191 79.19253 202.110774 75.00503 195.678482 81.682114 L 192.220148 85.447739 L 194.949315 81.682114 C 196.407649 79.499822 198.168065 77.494613 198.407649 77.25503 C 198.897232 77.010238 199.621191 75.978988 200.168066 75.00503 C 201.626399 72.275863 218.3139 54.37482 217.767025 56.135237 C 217.28265 58.072737 218.074317 57.103987 224.990984 50.12482 C 233.975359 40.958153 237.433693 37.442528 243.136818 32.463361 C 245.865985 29.973777 249.63161 26.515443 251.631611 24.755027 C 257.095153 19.536276 274.996195 5.885234 282.949321 0.661275 C 286.652446 -2.067892 292.839947 -5.526225 296.36078 -7.04185 C 300.063905 -8.802267 304.308697 -10.989767 305.767031 -12.021017 C 309.527448 -14.021018 315.964948 -16.510601 317.964948 -16.755393 C 318.694115 -16.755393 319.725365 -16.510601 319.970157 -15.724143 C 320.938907 -13.718934 321.183699 -4.067892 320.20974 1.635233 C 319.24099 9.890442 314.751406 25.062318 310.256614 35.499819 C 296.845155 67.786279 270.022237 101.588365 261.037861 97.645656 C 259.037861 96.614406 257.339944 97.098781 255.089944 99.098782 C 253.574319 100.374823 253.574319 100.859198 254.365986 101.588365 C 254.850361 102.07274 255.819111 104.077949 256.548278 105.838365 C 258.063903 109.781074 261.037861 113.057116 262.558695 112.270657 C 263.04307 112.025866 263.772236 112.270657 264.01182 113.057116 C 264.256611 113.786283 265.287862 113.786283 268.990987 113.301907 C 271.720154 112.755032 274.454529 112.025866 275.240987 111.541491 C 278.944112 109.536282 285.92328 101.833157 290.657655 95.400865 C 293.386822 91.390448 296.36078 87.447739 297.089947 86.416489 C 303.037864 78.468572 315.964948 55.098779 320.20974 43.932111 C 328.402449 23.301902 332.897241 5.156067 332.168074 -5.771017 C 331.923283 -11.536642 329.433699 -16.208518 324.704532 -19.968935 C 318.694115 -24.463727 317.235782 -24.70331 305.767031 -23.916852 C 297.819114 -23.67206 294.845155 -23.187685 291.871197 -21.974143 C 281.673279 -17.968934 259.277444 -2.067892 248.60036 9.098776 C 244.897235 12.864401 239.918068 17.83836 237.673276 20.083151 C 216.553483 39.926903 195.678482 62.077946 183.480564 77.494613 C 179.532648 82.713364 175.772231 87.447739 175.287856 88.176906 C 174.074314 89.937323 166.063897 101.833157 165.33473 103.348782 C 163.089938 108.32274 169.58473 100.619615 172.55348 94.85399 C 173.527439 93.395656 176.017022 89.937323 178.501397 87.202947 L 182.751398 82.47378 L 179.777439 86.661281 C 177.532647 89.390448 176.803481 90.666489 177.777439 90.906073 C 178.746189 91.390448 190.944107 78.708155 191.428482 76.463363 C 191.673273 75.734197 191.428482 74.765447 190.944107 74.281072 C 190.459732 73.734197 193.918065 69.546696 205.631608 56.619612 C 214.069108 47.150861 221.772234 38.958153 222.985775 37.989403 C 224.022234 37.197736 221.772234 40.171694 217.767025 44.421695 C 211.334733 51.640445 206.845149 56.859195 205.386816 59.833154 C 205.147233 60.322737 205.386816 60.562321 206.115983 60.562321 C 206.845149 60.562321 208.121191 59.593571 208.605566 58.317529 C 209.334733 57.103987 210.850358 55.098779 211.579525 54.130029 C 212.855566 53.098779 215.824317 50.12482 218.3139 47.150861 C 221.048275 44.176903 224.506609 40.718569 226.267026 39.202944 C 230.209734 35.739402 236.704526 29.734194 238.704526 27.791485 C 239.678485 26.760235 240.647235 26.031068 241.13161 26.031068 C 241.678485 25.786277 244.41286 23.301902 247.386819 20.083151 C 250.600361 16.807109 253.574319 13.588359 254.365986 13.103984 C 255.089944 12.864401 254.058694 14.077943 252.360777 16.077943 C 250.360777 18.083151 248.839944 19.843568 249.147235 20.083151 C 249.386819 20.327943 248.355569 21.781068 246.657652 23.05711 C 244.897235 24.755027 243.621193 26.27586 243.621193 26.760235 C 243.621193 27.24461 241.678485 29.489402 239.19411 31.734194 C 226.751401 42.900861 200.897232 70.999821 188.944107 86.171697 C 185.725356 90.421698 182.751398 93.640448 182.267023 93.395656 C 181.782648 93.150864 181.782648 93.395656 182.022231 93.640448 C 182.267023 94.124823 181.235773 96.124823 179.777439 97.88524 C 178.501397 99.827948 175.527439 103.833157 173.527439 106.807115 C 171.58473 109.781074 168.063897 114.760241 165.819105 117.973783 C 163.636813 121.249825 159.871188 127.197742 157.381604 131.20295 C 154.407646 136.119617 153.194104 137.880034 152.892021 137.150867 C 152.652437 136.421701 153.194104 135.150867 153.923271 134.176909 C 154.652438 133.145659 155.381604 132.416492 155.381604 132.176909 C 155.136813 131.20295 159.871188 123.739408 160.600355 123.739408 C 160.845146 123.739408 161.14723 123.192533 161.14723 122.708158 C 160.845146 121.978991 161.631605 121.249825 162.360771 120.70295 C 163.089938 120.218575 163.636813 119.7342 163.329521 119.249825 C 163.089938 119.005033 163.636813 117.734199 164.605563 116.760241 C 165.574313 115.791491 166.610772 114.515449 166.610772 114.270658 C 166.610772 113.786283 166.610772 113.301907 166.610772 112.755032 C 166.610772 112.510241 167.095147 112.270657 167.824313 112.025866 C 168.308688 112.025866 168.548272 111.786282 168.308688 111.296699 C 167.824313 110.572741 171.829522 105.348782 173.043064 105.348782 C 173.282647 105.046699 173.772231 104.562324 173.772231 103.593574 C 173.772231 102.864407 174.313897 102.07274 174.803481 102.07274 C 175.527439 102.07274 176.256606 100.859198 176.803481 99.588365 C 177.777439 96.614406 182.022231 91.150864 183.96494 90.421698 C 185.480565 89.635239 185.725356 87.447739 183.96494 87.692531 C 183.480564 87.692531 176.256606 94.609198 170.308689 101.588365 C 163.636813 108.812324 150.162854 129.20295 150.162854 131.932117 C 150.402437 132.416492 149.678479 134.421701 148.949312 136.119617 C 147.918062 137.880034 146.944104 140.124826 146.70452 141.098784 C 146.214937 142.130034 144.944104 144.130035 144.214937 145.827951 C 141.240978 150.807118 136.261811 160.515452 133.293061 167.192536 C 131.532644 170.71337 128.798269 176.416495 127.345144 180.11962 C 125.584727 183.640454 121.819102 192.801913 118.845144 200.265455 C 108.892018 225.150873 102.944101 246.270666 104.949309 248.031083 C 105.433684 248.515458 106.162851 248.76025 106.407643 248.270666 C 106.709726 248.031083 106.949309 248.76025 106.949309 249.484208 C 106.949309 250.76025 106.709726 251.005042 105.918059 250.76025 C 105.433684 250.520666 104.949309 250.76025 104.949309 251.005042 C 104.949309 251.489417 104.464934 251.734208 103.673268 251.734208 C 102.944101 251.734208 102.704518 252.218583 103.433684 254.218583 C 103.673268 256.223792 103.673268 256.708167 102.944101 256.708167 C 102.220142 256.708167 101.730559 257.437334 101.490976 258.223792 C 100.214934 266.906084 98.699309 273.64046 98.454517 272.364418 C 97.970142 268.119626 100.459726 251.973792 102.944101 241.536291 C 107.194101 224.906081 111.381601 212.468581 119.63681 193.348788 C 123.824311 183.880037 127.037852 175.93212 127.037852 175.447745 C 126.798269 174.90087 126.553477 175.447745 126.069102 176.416495 C 124.855561 179.15087 124.063894 178.906078 125.339936 176.416495 C 125.824311 175.140453 126.553477 174.416495 127.037852 174.416495 C 127.584727 174.90087 132.563894 165.734203 132.256603 165.010244 C 132.017019 164.702953 132.563894 163.973786 132.803478 163.489411 C 133.532645 162.760244 133.532645 162.520661 132.803478 163.005036 C 132.256603 163.249827 131.772228 163.249827 131.772228 162.760244 C 131.772228 162.520661 132.256603 161.973786 132.803478 161.973786 C 134.01702 161.973786 136.022228 158.27066 135.293061 156.755035 C 134.990978 155.781077 136.751395 151.775868 142.45452 141.098784 C 144.214937 137.880034 145.490979 135.150867 145.183687 135.150867 C 144.699312 134.421701 143.001395 136.911284 138.996187 143.343576 C 136.751395 147.348785 134.506603 151.536285 133.532645 153.05191 C 125.339936 166.947744 124.855561 167.984203 109.438893 202.755038 C 107.923268 205.973789 105.918059 211.739414 104.949309 215.926914 C 103.918059 219.687331 101.975351 226.364415 100.699309 230.369624 C 98.214934 238.807124 94.267017 255.494625 93.480559 262.900876 C 93.235767 265.630042 93.235767 272.60921 93.480559 278.312335 C 94.267017 287.781086 94.511809 289.296711 96.511809 295.244628 C 98.699309 301.192545 101.975351 306.656087 103.673268 308.171712 C 104.220143 308.656087 105.433684 310.17692 106.709726 311.630046 C 112.412851 319.583171 123.579519 325.286296 136.506603 326.801922 C 140.996187 327.291505 158.902438 325.833171 159.871188 324.801921 Z M 325.188907 176.176912 C 338.355575 161.005036 339.084741 160.031077 333.865991 166.947744 C 331.136824 170.468578 326.157657 176.176912 322.944115 179.635245 C 316.996198 185.885246 316.996198 185.640454 325.188907 176.176912 Z M 304.308697 198.81233 C 306.313906 197.296705 307.282656 197.296705 306.069114 199.051913 C 305.522239 199.78108 304.553489 200.265455 304.069114 200.265455 C 303.037864 200.265455 303.037864 200.025872 304.308697 198.81233 Z M 300.850364 207.005039 C 303.037864 204.515455 303.824322 204.275872 302.548281 205.728997 C 300.850364 207.973789 297.574322 211.494622 297.574322 210.947747 C 297.574322 210.708164 299.089947 209.005039 300.850364 207.005039 Z M 295.32953 207.973789 C 295.631614 207.489414 296.115989 207.005039 296.36078 207.005039 C 296.605572 207.005039 296.36078 207.489414 295.876405 207.973789 C 295.32953 208.702955 294.845155 209.24983 294.845155 209.24983 C 294.600363 209.24983 294.845155 208.702955 295.32953 207.973789 Z M 295.631614 212.952956 C 296.115989 212.223789 296.605572 211.739414 296.605572 211.739414 C 296.845155 211.739414 296.605572 212.223789 296.115989 212.952956 C 295.876405 213.437331 295.32953 213.921706 295.084738 213.921706 C 294.845155 213.921706 295.084738 213.437331 295.631614 212.952956 Z M 275.240987 230.614415 C 275.485779 230.614415 275.240987 231.338374 274.694112 232.369624 C 273.725362 233.343582 273.725362 233.343582 273.48057 232.369624 C 273.48057 231.338374 274.694112 230.124832 275.240987 230.614415 Z M 266.017028 240.077957 C 266.017028 240.322749 265.532653 241.051916 264.558695 242.020666 C 263.772236 243.051916 263.04307 243.536291 263.04307 243.296708 C 262.798278 242.265458 265.532653 239.531082 266.017028 240.077957 Z M 229.480567 32.708152 C 226.996192 34.952944 225.235776 36.713361 225.475359 36.228986 C 226.022234 35.197736 233.975359 27.489402 233.975359 28.036277 C 233.975359 28.27586 231.970151 30.281069 229.480567 32.708152 Z M 236.220151 26.27586 C 235.673276 26.999818 234.94411 27.791485 234.699318 27.791485 C 234.459734 27.791485 234.94411 26.999818 235.673276 26.27586 C 236.220151 25.546693 236.94411 24.755027 237.188901 24.755027 C 237.188901 24.755027 236.94411 25.546693 236.220151 26.27586 Z M 233.183693 39.202944 C 234.459734 37.682111 235.673276 36.713361 235.673276 36.713361 C 235.91286 36.713361 235.188901 37.682111 233.975359 39.202944 C 232.699318 40.718569 231.485776 41.687319 231.240984 41.687319 C 231.240984 41.687319 231.970151 40.718569 233.183693 39.202944 Z M 224.022234 48.426903 C 226.996192 45.390445 229.240984 43.447736 228.751401 43.932111 C 227.720151 45.93732 218.798275 55.34357 218.558692 54.614404 C 218.558692 54.130029 221.048275 51.400862 224.022234 48.426903 Z M 138.26702 164.218577 C 138.26702 163.249827 138.511812 162.275869 139.23577 161.728994 C 139.725353 161.244619 139.964937 160.515452 139.725353 160.031077 C 139.23577 159.244619 143.001395 152.567535 143.970145 152.322743 C 144.459729 152.322743 144.699312 152.08316 144.214937 151.775868 C 143.240978 151.05191 148.949312 140.609201 150.402437 141.338368 C 150.709729 141.338368 150.949312 140.853993 150.949312 140.124826 C 150.949312 139.395659 151.194104 138.848784 151.923271 138.609201 C 152.652437 138.609201 152.652437 139.395659 151.194104 142.130034 C 150.402437 144.130035 149.188896 146.072743 148.704521 146.557118 C 148.220145 147.103993 147.67327 147.83316 147.918062 148.562326 C 147.918062 148.80191 147.428479 149.593577 146.944104 149.838368 C 146.214937 150.077952 145.975354 150.807118 146.214937 151.536285 C 146.70452 152.807118 145.490979 154.265452 144.214937 154.265452 C 143.970145 154.025868 143.48577 154.812327 143.48577 155.296702 C 143.48577 156.27066 143.48577 156.510244 144.214937 156.27066 C 144.699312 155.781077 144.459729 156.27066 143.730562 156.994619 C 142.699312 158.031077 142.45452 158.755035 142.699312 158.999827 C 143.001395 159.244619 142.699312 159.484202 142.209728 159.244619 C 141.48577 159.244619 141.240978 159.786286 141.240978 161.005036 C 141.240978 161.973786 140.511812 163.489411 139.725353 164.463369 L 138.26702 165.978994 Z M 118.60556 215.926914 C 117.631602 217.197748 117.631602 217.197748 117.876394 216.166498 C 117.876394 215.442539 118.115977 214.468581 118.115977 213.682122 C 118.115977 213.192539 118.360769 212.952956 118.60556 212.708164 C 119.089935 212.708164 119.334727 213.192539 119.334727 213.682122 C 119.63681 214.223789 119.089935 215.197748 118.60556 215.926914 Z M 131.043061 177.93212 C 132.017019 176.661287 132.563894 175.140453 132.563894 174.416495 C 132.563894 173.442536 132.803478 172.171703 133.293061 171.68212 C 136.261811 167.494619 136.990978 166.463369 137.480561 166.947744 C 137.782645 166.947744 137.480561 167.984203 136.751395 168.708161 C 135.777436 169.921703 135.777436 170.468578 136.506603 170.71337 C 137.23577 171.197745 137.23577 171.68212 136.506603 173.442536 C 136.022228 174.416495 135.537853 174.90087 135.537853 174.416495 C 135.293061 173.442536 135.293061 173.442536 134.261811 174.416495 C 133.777436 174.90087 133.048269 176.661287 132.803478 178.421703 C 132.017019 180.421704 131.532644 181.15087 130.803478 180.906079 C 129.043061 180.906079 129.043061 180.11962 131.043061 177.93212 Z M 126.798269 188.374829 C 127.345144 188.067537 127.584727 187.583162 127.345144 187.343579 C 126.553477 186.130037 127.584727 183.880037 128.798269 183.640454 C 130.803478 182.848787 130.803478 185.093579 129.043061 186.853996 C 128.558686 187.343579 127.345144 189.588371 126.553477 191.588371 C 125.095144 195.046705 124.553477 195.536288 123.824311 194.807121 C 123.095144 194.322746 125.584727 189.098787 126.798269 188.374829 Z M 123.095144 196.567538 C 123.579519 196.567538 123.824311 197.051913 123.579519 197.78108 C 123.339936 198.567538 123.579519 198.81233 124.063894 198.265455 C 124.553477 198.020663 124.855561 198.020663 124.855561 198.265455 C 124.855561 198.81233 124.553477 199.296705 124.308686 199.78108 C 124.063894 200.510247 123.579519 200.265455 123.095144 199.296705 C 121.819102 197.536288 121.819102 196.807121 123.095144 196.567538 Z M 118.360769 208.21858 C 119.089935 208.702955 120.60556 204.760247 119.876394 203.484205 C 119.63681 202.99983 119.63681 202.99983 120.365977 203.239413 C 121.089935 203.786288 121.089935 203.484205 120.850352 202.755038 C 120.121185 201.541497 120.60556 199.541496 121.579519 199.541496 C 122.365977 199.296705 122.126394 200.755038 121.334727 204.275872 C 121.089935 205.489414 121.089935 205.728997 121.819102 205.244622 C 122.365977 204.99983 122.610769 204.99983 122.365977 205.489414 C 122.126394 205.973789 121.334727 206.213372 121.089935 205.973789 C 120.60556 205.728997 120.365977 205.973789 120.60556 206.760247 C 120.60556 208.21858 118.845144 209.734205 118.115977 208.463372 C 117.876394 207.973789 117.876394 207.973789 118.360769 208.21858 Z M 117.392018 210.947747 C 118.360769 210.947747 118.360769 211.192539 118.115977 212.223789 C 117.392018 213.682122 115.38681 215.442539 115.38681 214.713372 C 115.38681 212.952956 116.360768 211.192539 117.392018 210.947747 Z M 113.871185 218.900873 C 114.110768 218.411289 114.657643 217.926914 114.902435 217.926914 C 115.147227 217.926914 115.38681 218.171706 115.147227 218.900873 C 114.902435 219.447748 114.657643 219.932123 114.110768 219.932123 C 113.871185 219.932123 113.626393 219.447748 113.871185 218.900873 Z M 112.897227 222.176915 C 113.38681 221.145665 113.626393 221.385248 113.626393 222.66129 C 113.871185 223.390456 113.38681 224.119623 113.142018 224.119623 C 112.173268 224.119623 112.173268 223.390456 112.897227 222.176915 Z M 110.897226 235.103999 C 110.897226 235.343582 111.626393 234.072749 112.657643 232.06754 C 113.38681 230.369624 113.871185 229.338373 113.871185 230.369624 C 113.142018 233.588374 111.381601 237.593582 110.897226 237.046707 C 110.412851 236.801916 109.923268 237.046707 109.683685 237.593582 C 109.438893 238.317541 109.19931 238.317541 109.19931 238.077957 C 108.892018 237.046707 110.897226 234.072749 110.897226 235.103999 Z M 107.194101 252.218583 C 108.16806 248.270666 108.892018 248.270666 108.16806 252.218583 C 107.678476 254.218583 107.194101 255.979 106.949309 256.223792 C 106.407643 256.952959 106.407643 254.708167 107.194101 252.218583 Z M 134.261811 157.541494 C 134.746186 157.30191 134.746186 157.541494 134.746186 158.031077 C 134.261811 159.244619 133.777436 159.484202 133.777436 158.515452 C 133.777436 158.27066 134.01702 157.786285 134.261811 157.541494 Z M 128.558686 169.921703 C 129.282644 167.984203 130.319103 166.463369 130.558686 166.463369 C 130.558686 166.708161 130.074311 168.468578 129.043061 170.228995 C 126.798269 174.416495 126.553477 174.416495 128.558686 169.921703 Z M 138.511812 150.807118 C 137.782645 152.08316 136.990978 153.296702 136.990978 153.781077 C 136.990978 154.025868 137.782645 153.536285 138.751395 152.322743 C 140.756603 149.593577 140.511812 148.077951 138.511812 150.807118 Z M 202.902441 64.567529 C 205.147233 62.077946 204.600358 61.046696 202.412857 63.051904 C 201.142024 64.083154 200.412857 65.051904 200.412857 65.541488 C 200.412857 67.057113 201.142024 66.812321 202.902441 64.567529 Z M 156.897229 116.031074 C 156.657646 116.515449 156.657646 116.760241 157.381604 116.515449 C 157.871188 116.275866 158.902438 114.999824 159.386813 113.786283 C 159.871188 112.510241 161.14723 110.572741 162.360771 109.296699 C 164.360772 107.29149 164.850355 106.077949 163.636813 106.077949 C 163.089938 106.077949 158.418063 113.057116 156.897229 116.031074 Z M 407.720163 184.36962 C 408.933704 184.853996 409.725371 185.885246 409.964954 187.098787 C 410.454538 188.374829 410.694121 188.859204 411.907663 188.374829 C 412.454538 188.067537 413.183705 188.374829 413.183705 188.859204 C 413.183705 189.588371 413.912871 189.588371 415.183705 188.859204 C 416.642038 187.827954 413.66808 182.364412 410.454538 179.635245 C 405.720162 175.93212 401.22537 174.416495 393.522245 174.656078 C 385.324328 174.656078 376.40766 176.416495 361.475368 180.666495 L 358.261826 181.635245 L 360.199326 175.93212 C 361.475368 172.958161 364.449326 165.010244 366.93891 158.515452 C 372.402452 144.130035 372.886827 141.640451 372.886827 134.176909 C 372.886827 128.718575 372.886827 128.1717 371.428493 127.682117 C 370.397243 127.197742 369.668077 125.926908 369.183702 124.223783 C 368.454535 121.978991 367.90766 121.494616 365.480576 120.463366 C 361.72016 119.249825 359.230576 119.489408 358.985784 121.494616 C 358.985784 122.223783 357.772243 125.197742 356.740993 127.926908 C 354.496201 132.906075 354.011826 135.880034 355.287867 135.880034 C 355.772242 135.880034 355.772242 136.421701 355.527451 136.911284 C 355.287867 137.635242 355.772242 138.609201 356.256617 139.395659 C 357.470159 140.853993 357.470159 141.098784 356.011826 145.588368 C 354.980576 148.077951 354.256617 150.562327 353.767034 151.05191 C 353.527451 151.291493 351.522242 156.755035 349.522242 162.760244 C 347.27745 168.708161 344.303492 176.90087 342.600367 181.15087 C 341.084741 185.093579 339.626408 188.859204 339.626408 189.588371 C 339.324325 190.072746 334.652449 193.046704 328.886824 195.775871 C 323.423282 198.567538 317.235782 201.786288 315.230573 202.99983 C 313.470156 204.275872 311.287865 205.728997 310.496198 206.213372 C 308.553489 207.489414 301.089947 210.947747 298.36078 211.978997 C 297.32953 212.468581 295.631614 213.437331 294.595155 214.468581 C 293.381613 215.197748 289.865988 217.687331 286.162863 219.932123 C 278.454529 224.421706 267.287862 231.827957 260.308695 236.801916 C 257.579528 238.562332 255.089944 240.322749 254.845152 240.322749 C 253.813902 240.322749 243.13161 248.76025 231.480568 259.19775 C 218.069108 271.150876 203.626399 285.775877 197.194107 294.515461 C 194.704524 297.734211 192.21494 300.223795 191.975357 300.223795 C 191.428482 300.223795 190.454523 301.192545 189.485773 302.223795 C 188.694106 303.197753 188.209731 303.682128 188.209731 303.437337 C 188.209731 302.952962 188.938898 301.67692 190.21494 300.463378 C 192.459732 298.218586 192.699315 297.48942 191.668065 297.48942 C 190.699315 297.48942 186.449315 304.411295 186.99619 305.197753 C 187.480565 305.92692 187.240981 305.92692 186.694106 305.682128 C 185.720148 304.95817 182.990981 309.385254 183.475356 310.900879 C 183.720148 311.630046 182.990981 312.906087 181.777439 314.119629 C 180.746189 315.395671 179.048273 318.369629 178.017022 320.854004 C 176.558689 324.55713 176.256606 326.317546 176.558689 329.77588 C 176.803481 333.541505 176.558689 334.02588 175.767022 333.781089 C 175.043064 333.541505 174.798272 333.781089 174.798272 334.270672 C 174.798272 334.99463 174.313897 335.484214 173.52223 335.786297 C 172.308689 336.270672 172.308689 338.515464 173.52223 338.515464 C 174.069106 338.515464 174.798272 337.968589 175.282647 337.484214 C 175.767022 336.755047 176.011814 336.999839 176.011814 338.213381 C 176.011814 339.244631 175.767022 339.729006 175.043064 339.729006 C 173.767022 339.729006 173.767022 341.249839 174.798272 350.166506 C 175.282647 357.390465 177.527439 366.312341 179.532648 370.317549 C 181.777439 374.260258 189.970148 381.239425 193.918065 382.213383 C 197.43369 382.999842 207.876399 382.213383 212.0639 380.75505 C 218.069108 378.75505 229.480567 372.562341 237.188901 367.098799 C 253.813902 355.145673 271.475362 337.968589 287.131613 318.369629 C 288.89203 315.880046 291.136822 313.150879 292.11078 312.359212 C 296.115989 308.171712 304.793072 294.760253 310.985781 283.291502 C 312.017031 281.588377 314.746198 276.614418 316.99099 272.364418 C 319.480573 268.119626 325.183699 256.708167 329.673282 246.999833 C 338.110783 229.338373 340.355575 224.421706 348.063909 206.520664 L 352.251409 196.807121 L 360.506618 193.833163 C 382.355578 185.885246 401.470162 182.11962 407.720163 184.36962 Z M 228.990984 364.067549 C 227.720151 364.614424 226.746192 365.098799 226.746192 364.854007 C 226.746192 364.614424 227.720151 364.067549 228.990984 363.338382 C 230.209734 362.854007 230.996193 362.364424 230.996193 362.609216 C 230.996193 362.854007 230.209734 363.583174 228.990984 364.067549 Z M 241.433693 355.385257 C 237.428485 358.119632 233.725359 361.09359 232.938901 361.577965 C 232.454526 362.12484 231.964943 362.12484 231.964943 361.880049 C 231.964943 361.577965 234.454526 359.150882 237.91286 356.661298 C 241.19411 354.171715 245.38161 350.65609 247.38161 348.713381 C 249.386819 346.952964 251.084736 345.437339 251.324319 345.437339 C 251.631611 345.192548 253.574319 343.187339 255.819111 341.005047 C 260.308695 336.02588 262.798278 333.781089 263.282653 334.510255 C 264.01182 334.99463 248.595152 349.926923 241.433693 355.385257 Z M 268.501403 328.80713 C 266.501403 331.296713 263.527445 333.781089 263.527445 333.296714 C 263.527445 332.99463 265.282653 331.536297 267.287862 329.536297 C 270.506612 326.317546 270.506612 326.317546 268.501403 328.80713 Z M 273.720154 322.859213 C 272.506612 324.317546 271.475362 325.58838 271.23057 325.58838 C 270.746195 325.58838 271.475362 324.317546 272.751404 322.859213 C 275.725362 319.093588 276.209737 319.093588 273.720154 322.859213 Z M 274.996195 313.635254 C 273.964945 314.848796 272.990987 315.880046 272.751404 316.124837 C 272.26182 316.609213 272.751404 315.635254 273.720154 314.119629 C 276.209737 310.900879 276.938904 310.661295 274.996195 313.635254 Z M 280.699321 306.411295 C 279.668071 308.171712 278.454529 309.14567 278.454529 308.171712 C 278.454529 307.92692 279.183696 306.89567 279.912862 306.171712 C 281.428488 304.95817 281.428488 304.95817 280.699321 306.411295 Z M 285.678488 308.416504 C 285.131613 309.14567 283.918071 310.661295 282.944113 311.630046 C 281.183696 313.150879 281.183696 313.150879 283.428488 309.932129 C 285.678488 306.656087 286.89203 305.92692 285.678488 308.416504 Z M 286.162863 298.463378 C 285.918071 299.192545 284.647238 300.947753 283.673279 301.921712 C 282.704529 303.197753 282.157654 303.437337 282.397238 302.70817 C 282.944113 301.921712 284.157654 300.463378 285.131613 299.192545 C 286.162863 297.979003 286.647238 297.734211 286.162863 298.463378 Z M 293.871197 293.968586 C 293.626405 294.760253 293.14203 295.244628 292.839947 295.244628 C 292.595155 295.244628 292.839947 294.760253 293.381613 293.968586 C 293.626405 293.244628 294.11078 292.515461 294.355572 292.515461 C 294.595155 292.515461 294.355572 293.244628 293.871197 293.968586 Z M 300.543072 285.051919 C 300.303489 285.775877 299.819114 286.020669 299.32953 286.020669 C 299.089947 286.020669 299.089947 285.775877 299.574322 285.051919 C 300.058697 284.562335 300.543072 284.07796 300.543072 284.07796 C 300.850364 284.07796 300.850364 284.562335 300.543072 285.051919 Z M 316.204532 256.463375 C 315.230573 258.223792 314.261823 259.19775 314.261823 258.468584 C 314.261823 257.676917 316.751407 253.734208 316.99099 253.979 C 317.235782 254.218583 316.751407 255.192542 316.204532 256.463375 Z M 322.20974 227.640457 C 320.694115 231.09879 319.235782 234.557124 318.996198 235.343582 C 318.688907 236.317541 316.751407 239.775874 314.746198 243.296708 C 312.74099 246.999833 310.256614 251.734208 309.043073 253.979 C 306.308698 259.926917 299.819114 271.150876 292.839947 282.562335 C 289.621196 288.025877 286.647238 292.999836 286.162863 293.968586 C 284.647238 297.734211 270.017028 316.848796 260.79307 327.046713 C 257.579528 330.80713 255.574319 333.296714 256.303486 332.749839 C 257.089944 332.510255 260.308695 329.291505 263.527445 325.833171 C 266.740987 322.55713 268.746195 320.614421 268.017028 321.827963 C 266.256612 324.072755 247.38161 342.947756 240.647235 348.713381 C 232.454526 355.87484 222.5014 362.609216 213.819108 366.859216 C 206.600358 370.562341 200.168066 372.077966 196.40244 371.531091 C 195.188899 371.286299 194.40244 371.046716 194.704524 370.801924 C 195.188899 370.801924 194.949315 370.562341 194.40244 370.072758 C 193.428482 369.588383 193.428482 369.286299 194.704524 369.286299 C 195.188899 369.286299 195.918065 369.041508 195.918065 368.801924 C 195.918065 368.312341 195.188899 368.072758 194.157649 368.312341 C 192.459732 368.801924 185.235773 366.312341 183.96494 364.854007 C 183.475356 364.369632 182.990981 361.577965 182.751398 358.604007 C 182.261814 352.900882 182.506606 350.411298 185.480565 339.489422 C 190.21494 320.067546 205.871191 297.979003 232.938901 272.124835 C 242.16286 263.140459 258.793069 248.999833 266.256612 243.781083 C 277.485779 235.833166 293.381613 225.390457 298.605572 222.66129 C 301.574322 220.900873 305.277447 218.900873 306.798281 217.926914 C 309.772239 216.166498 331.923283 204.99983 331.923283 205.244622 C 331.923283 205.728997 325.42849 220.900873 322.20974 227.640457 Z M 336.110783 198.567538 C 335.865991 199.296705 330.886824 202.025872 321.725365 206.760247 C 293.626405 220.900873 264.558695 239.531082 252.600361 251.489417 C 250.355569 253.489417 245.865985 257.676917 242.647235 260.411292 C 239.673276 262.900876 234.699318 267.390459 231.964943 270.119626 C 228.990984 273.093585 223.53265 278.072752 220.011817 281.588377 C 212.0639 289.296711 211.574316 288.510252 219.28265 280.557127 C 222.5014 277.583168 224.746192 274.60921 224.501401 274.124835 C 224.017025 273.338376 244.168068 254.94775 254.058694 246.999833 C 263.527445 239.291499 276.449321 230.369624 285.131613 224.906081 C 296.845155 217.687331 310.740989 209.734205 317.235782 206.213372 C 335.865991 196.567538 336.595158 196.322746 336.110783 198.567538 Z M 355.527451 191.833163 C 354.256617 192.072746 354.011826 192.072746 354.496201 191.588371 C 354.740992 191.103996 355.527451 190.859204 356.011826 191.103996 C 356.740993 191.348788 356.256617 191.588371 355.527451 191.833163 Z M 377.621202 185.338371 C 376.40766 185.640454 374.647244 185.885246 373.433702 185.885246 L 371.18891 185.885246 L 373.433702 184.853996 C 376.162869 183.880037 386.845161 181.15087 388.543078 181.15087 C 389.334745 181.15087 389.81912 180.666495 389.81912 180.421704 C 389.81912 179.390453 391.81912 179.390453 392.308703 180.421704 C 392.548287 181.15087 392.793078 181.15087 393.032662 180.421704 C 393.277453 179.874829 395.03787 179.635245 397.527454 179.635245 C 400.011829 179.635245 400.985787 179.874829 400.740995 180.421704 C 400.501412 180.906079 400.740995 181.15087 402.256621 180.906079 C 402.985787 180.666495 403.714954 180.906079 403.475371 181.15087 C 403.475371 181.395662 401.772245 181.635245 400.011829 181.635245 C 396.00662 181.635245 380.350369 184.124829 377.621202 185.338371 Z M 379.865994 97.098781 C 380.350369 97.098781 381.381619 97.645656 381.865994 98.614407 C 382.595161 99.343573 383.871203 100.374823 384.600369 100.619615 C 386.845161 101.588365 390.303495 101.343573 391.032661 100.374823 C 391.81912 99.588365 392.308703 97.098781 392.063912 94.85399 C 392.063912 94.124823 391.272245 93.150864 390.303495 92.911281 C 389.089953 92.426906 388.543078 91.880031 389.089953 90.666489 C 389.334745 89.635239 389.089953 88.906073 388.298286 88.421698 C 387.574328 88.176906 387.084745 87.447739 387.084745 87.202947 C 387.084745 85.932114 385.324328 84.411281 383.079536 83.687322 C 381.626411 82.958155 380.834744 83.197739 380.105577 83.926906 C 379.381619 84.411281 378.350369 84.958156 377.860786 84.958156 C 376.40766 84.958156 375.131619 86.416489 375.131619 88.421698 C 375.131619 90.421698 378.652452 97.098781 379.865994 97.098781 Z M 379.865994 97.098781 " stroke="rgb(14.898682%, 17.649841%, 46.269226%)" stroke-width="9.321788" stroke-opacity="1" stroke-miterlimit="4"/></svg>